# xmcd CD database file
#
# Track frame offsets:
#	150
#	27479
#	50568
#	80489
#	106224
#	138916
#	149057
#	171998
#	189949
#	214227
#
# Disc length: 3098 seconds
#
# Revision: 0
# Processed by: cddbd v1.5PL3 Copyright (c) Steve Scherf et al.
# Submitted via: CDex 1.51
#
DISCID=930c180a
DTITLE=Sojiro - Suishin
DYEAR=1992
DGENRE=New Age
TTITLE0=Haru-no Tsuchi
TTITLE1=Mizu-no Tabibito
TTITLE2=Kanashii Mizu
TTITLE3=Mizu-no Yoosei
TTITLE4=Shizuka Naru Shitsugen
TTITLE5=Suishin
TTITLE6=Ikite Iru Mizu
TTITLE7=Yukidoke-no Sato
TTITLE8=Umi-ni Yurarete
TTITLE9=Mizu-to Tsuchi-e-no Inori
EXTD=YEAR: 1992
EXTT0=
EXTT1=
EXTT2=
EXTT3=
EXTT4=
EXTT5=
EXTT6=
EXTT7=
EXTT8=
EXTT9=
PLAYORDER=
